ply
format ascii 1.0
element vertex 2500 
property float x
property float y
property float z
end_header
0.0 0.0 0.0 0.0 -0.0 0.0 0.0 -0.0 0.0 0.0 -0.0 0.0 0.0 -0.0 0.0 0.0 -0.0 0.0 0.0 -0.0 0.0 0.0 -0.0 0.0 0.0 -0.0 0.0 0.0 -0.0 0.0 0.0 -0.0 0.0 0.0 -0.0 0.0 0.0 -0.0 0.0 5.483627319335938e-08 -2.86102294921875e-08 1.1920928955078125e-07 0.00021550655364990234 -0.00010306835174560547 0.0004684925079345703 0.07608642578125 -0.0330810546875 0.1654052734375 0.75064453125 -0.29373046875 1.6318359375 1.3826953125 -0.4809375 3.005859375 2.337734375 -0.711484375 5.08203125 2.3215625 -0.605625 5.046875 2.352109375 -0.511328125 5.11328125 2.287421875 -0.3978125 4.97265625 2.21375 -0.28875 4.8125 2.140078125 -0.18609375 4.65234375 2.068203125 -0.089921875 4.49609375 2.00171875 0.0 4.3515625 1.935234375 0.084140625 4.20703125 1.8759375 0.163125 4.078125 1.8175390625 0.2370703125 3.951171875 1.7636328125 0.30671875 3.833984375 1.6675 0.3625 3.625 1.5731640625 0.410390625 3.419921875 1.173359375 0.357109375 2.55078125 0.75244140625 0.26171875 1.6357421875 0.115673828125 0.045263671875 0.25146484375 0.004565887451171875 0.00198516845703125 0.00992584228515625 1.061081886291504e-05 5.074739456176758e-06 2.3066997528076172e-05 0.0 0.0 0.0 0.0 0.0 0.0 0.0 0.0 0.0 0.0 0.0 0.0 0.0 0.0 0.0 0.0 0.0 0.0 0.0 0.0 0.0 0.0 0.0 0.0 0.0 0.0 0.0 0.0 0.0 0.0 0.0 0.0 0.0 0.0 0.0 0.0 0.0 0.0 0.0 1.9559375 0.0 4.4453125 2.56265625 -0.97625 6.1015625 1.890625 0.0859375 4.296875 0.0 0.0 0.0 1.83046875 0.16640625 4.16015625 2.955390625 -2.17765625 7.77734375 1.77203125 0.241640625 4.02734375 2.390390625 -0.68296875 5.69140625 1.717890625 0.31234375 3.904296875 0.0 0.0 0.0 1.664609375 0.3783203125 3.783203125 0.0 0.0 0.0 1.613046875 0.439921875 3.666015625 2.213203125 -0.4215625 5.26953125 1.56578125 0.498203125 3.55859375 2.851484375 -1.8009375 7.50390625 1.518515625 0.5521875 3.451171875 0.0 0.0 0.0 1.372421875 0.5614453125 3.119140625 2.052421875 -0.19546875 4.88671875 0.7248828125 0.3294921875 1.6474609375 0.0 0.0 0.0 0.1061328125 0.05306640625 0.2412109375 0.0 0.0 0.0 0.00419281005859375 0.0022869873046875 0.00952911376953125 1.9096875 0.0 4.546875 9.729862213134766e-06 5.749464035034179e-06 2.2113323211669922e-05 2.9484375 -2.428125 8.671875 0.0 0.0 0.0 0.0 0.0 0.0 0.0 0.0 0.0 1.780078125 0.16953125 4.23828125 0.0 0.0 0.0 0.0 0.0 0.0 0.0 0.0 0.0 2.5175 -1.06 6.625 0.0 0.0 0.0 1.6693359375 0.31796875 3.974609375 0.0 0.0 0.0 0.0 0.0 0.0 0.0 0.0 0.0 2.82625 -1.995 8.3125 0.0 0.0 0.0 1.56515625 0.4471875 3.7265625 0.0 0.0 0.0 2.3275 -0.735 6.125 0.0 0.0 0.0 0.0 0.0 0.0 0.0 0.0 0.0 1.47328125 0.56125 3.5078125 1.8640625 0.0 4.66015625 0.0 0.0 0.0 1.4314453125 0.6134765625 3.408203125 0.0 0.0 0.0 1.796875 0.08984375 4.4921875 1.3887890625 0.661328125 3.306640625 0.0 0.0 0.0 0.0 0.0 0.0 1.25671875 0.65828125 2.9921875 0.0 0.0 0.0 2.064765625 -0.326015625 5.43359375 0.6636328125 0.37921875 1.580078125 1.6734375 0.251015625 4.18359375 0.0 0.0 0.0 0.09720703125 0.06017578125 0.2314453125 1.9771875 -0.208125 5.203125 1.61875 0.32375 4.046875 0.003765106201171875 0.00251007080078125 0.00896453857421875 0.0 0.0 0.0 2.4809375 -1.1675 7.296875 2.503395080566406e-08 1.7881393432617187e-08 5.960464477539063e-08 3.176875 -3.42125 12.21875 0.0 0.0 0.0 0.0 0.0 0.0 1.51484375 0.454453125 3.787109375 1.818359375 0.0 4.78515625 0.0 0.0 0.0 0.0 0.0 0.0 1.46796875 0.5137890625 3.669921875 0.0 0.0 0.0 1.74859375 0.09203125 4.6015625 0.0 0.0 0.0 0.0 0.0 0.0 2.284375 -0.80625 6.71875 0.0 0.0 0.0 0.0 0.0 0.0 1.38125 0.6215625 3.453125 0.0 0.0 0.0 0.0 0.0 0.0 0.0 0.0 0.0 1.3421875 0.67109375 3.35546875 0.0 0.0 0.0 0.0 0.0 0.0 3.176875 -2.9325 12.21875 0.0 0.0 0.0 1.5675 0.33 4.125 0.0 0.0 0.0 0.0 0.0 0.0 1.2671875 0.7603125 3.16796875 0.0 0.0 0.0 1.5148046875 0.3986328125 3.986328125 0.0 0.0 0.0 1.146875 0.74546875 2.8671875 2.4796875 -1.3225 8.265625 1.996171875 -0.352265625 5.87109375 1.4643359375 0.462421875 3.853515625 0.3666015625 0.25662109375 0.91650390625 0.0 0.0 0.0 0.0 0.0 0.0 0.0 0.0 0.0 0.03212890625 0.0240966796875 0.080322265625 1.90984375 -0.2246875 5.6171875 1.63546875 0.18171875 4.54296875 0.0 0.0 0.0 1.678466796875e-05 1.3427734375e-05 4.1961669921875e-05 1.3715625 0.5775 3.609375 0.0 0.0 0.0 0.0 0.0 0.0 0.0 0.0 0.0 4.0940625 -4.46625 18.609375 1.33 0.63 3.5 2.246484375 -0.89859375 7.48828125 0.0 0.0 0.0 0.0 0.0 0.0 1.51734375 0.3371875 4.21484375 1.29140625 0.6796875 3.3984375 0.0 0.0 0.0 0.0 0.0 0.0 0.0 0.0 0.0 0.0 0.0 0.0 0.0 0.0 0.0 0.0 0.0 0.0 1.6575 0.0975 4.875 0.0 0.0 0.0 0.0 0.0 0.0 1.2194140625 0.77015625 3.208984375 1.411875 0.470625 3.921875 2.575625 -1.585 9.90625 0.0 0.0 0.0 1.5884375 0.186875 4.671875 1.1867578125 0.8119921875 3.123046875 0.0 0.0 0.0 0.0 0.0 0.0 0.0 0.0 0.0 0.0 0.0 0.0 1.126640625 0.83015625 2.96484375 0.0 0.0 0.0 0.0 0.0 0.0 1.319765625 0.5865625 3.666015625 0.0 0.0 0.0 0.794140625 0.626953125 2.08984375 0.0 0.0 0.0 0.0 0.0 0.0 1.464921875 0.3446875 4.30859375 1.277578125 0.6387890625 3.548828125 0.05700927734375 0.0480078125 0.1500244140625 0.0 0.0 0.0 1.8234375 -0.243125 6.078125 1.6125 0.10078125 5.0390625 2.2465625 -1.036875 8.640625 1.5718936920166017e-05 1.4064311981201172e-05 4.1365623474121094e-05 0.0 0.0 0.0 0.0 0.0 0.0 0.0 0.0 0.0 0.0 0.0 0.0 0.0 0.0 0.0 1.201640625 0.7343359375 3.337890625 1.358671875 0.47953125 3.99609375 0.0 0.0 0.0 0.0 0.0 0.0 0.0 0.0 0.0 6.5690625 -4.7775 29.859375 1.1671875 0.778125 3.2421875 0.0 0.0 0.0 1.310859375 0.539765625 3.85546875 0.0 0.0 0.0 0.0 0.0 0.0 0.0 0.0 0.0 1.135546875 0.8201171875 3.154296875 0.0 0.0 0.0 0.0 0.0 0.0 1.265703125 0.595625 3.72265625 1.415 0.35375 4.421875 0.0 0.0 0.0 1.10671875 0.86078125 3.07421875 0.0 0.0 0.0 0.0 0.0 0.0 0.0 0.0 0.0 1.22453125 0.64828125 3.6015625 0.0 0.0 0.0 0.0 0.0 0.0 0.0 0.0 0.0 1.845390625 -0.425859375 7.09765625 1.490625 0.19875 4.96875 0.0 0.0 0.0 0.0 0.0 0.0 0.744609375 0.661875 2.068359375 3.5371875 -1.929375 16.078125 1.30375 0.48890625 4.07421875 0.0 0.0 0.0 1.5990625 0.0 5.7109375 0.0 0.0 0.0 0.05326171875 0.050302734375 0.14794921875 1.73671875 -0.2671875 6.6796875 0.0 0.0 0.0 5.574375 -4.955 30.96875 1.255625 0.5493359375 3.923828125 0.0 0.0 0.0 1.4698505401611328e-05 1.4698505401611328e-05 4.082918167114258e-05 1.1149609375 0.78703125 3.279296875 1.51703125 0.108359375 5.41796875 1.36171875 0.363125 4.5390625 0.0 0.0 0.0 0.0 0.0 0.0 0.0 0.0 0.0 0.0 0.0 0.0 1.08375 0.82875 3.1875 0.0 0.0 0.0 0.0 0.0 0.0 0.0 0.0 0.0 0.0 0.0 0.0 0.0 0.0 0.0 1.170625 0.6584765625 3.658203125 1.055859375 0.86953125 3.10546875 0.0 0.0 0.0 1.546796875 0.0 5.94921875 0.0 0.0 0.0 0.0 0.0 0.0 0.0 0.0 0.0 1.24921875 0.4996875 4.1640625 1.0299609375 0.9087890625 3.029296875 0.0 0.0 0.0 0.0 0.0 0.0 0.0 0.0 0.0 0.0 0.0 0.0 5.5575 -3.705 30.875 1.4625 0.1125 5.625 1.0033984375 0.944375 2.951171875 0.0 0.0 0.0 4.326875 -4.945 30.90625 1.30703125 0.3734375 4.66796875 0.0 0.0 0.0 0.0 0.0 0.0 0.0 0.0 0.0 0.0 0.0 0.0 0.0 0.0 0.0 1.0625 0.796875 3.3203125 1.15546875 0.61625 3.8515625 0.0 0.0 0.0 1.63109375 -0.2965625 7.4140625 1.24796875 0.445703125 4.45703125 0.049638671875 0.05255859375 0.14599609375 0.0 0.0 0.0 0.0 0.0 0.0 1.0325 0.83890625 3.2265625 0.0 0.0 0.0 1.1150390625 0.6690234375 3.716796875 0.0 0.0 0.0 1.3699531555175781e-05 1.5311241149902343e-05 4.029273986816406e-05 0.0 0.0 0.0 1.19328125 0.51140625 4.26171875 0.0 0.0 0.0 1.004375 0.878828125 3.138671875 0.0 0.0 0.0 0.0 0.0 0.0 0.0 0.0 0.0 0.0 0.0 0.0 0.0 0.0 0.0 0.0 0.0 0.0 1.25125 0.385 4.8125 0.97875 0.917578125 3.05859375 0.0 0.0 0.0 0.0 0.0 0.0 4.3509375 -3.729375 31.078125 1.040625 0.763125 3.46875 1.423984375 0.0 6.47265625 0.0 0.0 0.0 0.0 0.0 0.0 0.955 0.955 2.984375 0.0 0.0 0.0 1.098125 0.6275 3.921875 0.0 0.0 0.0 0.0 0.0 0.0 1.008984375 0.8071875 3.36328125 0.0 0.0 0.0 0.0 0.0 0.0 0.0 0.0 0.0 0.0 0.0 0.0 1.33890625 0.12171875 6.0859375 0.0 0.0 0.0 1.05765625 0.679921875 3.77734375 1.13546875 0.5240625 4.3671875 0.9796875 0.8490625 3.265625 0.0 0.0 0.0 0.644375 0.724921875 2.013671875 1.47796875 -0.3284375 8.2109375 0.0 0.0 0.0 0.0 0.0 0.0 1.1925 0.3975 4.96875 0.0 0.0 0.0 1.019375 0.728125 3.640625 0.9515625 0.888125 3.171875 0.0461328125 0.05478271484375 0.1441650390625 0.0 0.0 0.0 0.0 0.0 0.0 0.0 0.0 0.0 0.0 0.0 0.0 2.7278125 -1.55875 19.484375 0.0 0.0 0.0 0.0 0.0 0.0 1.27410888671875e-05 1.5926361083984374e-05 3.981590270996094e-05 2.528125 -3.03375 25.28125 0.0 0.0 0.0 1.0394921875 0.6396875 3.998046875 1.193671875 0.325546875 5.42578125 0.0 0.0 0.0 0.0 0.0 0.0 0.0 0.0 0.0 0.0 0.0 0.0 0.903515625 0.96375 3.01171875 0.95484375 0.8184375 3.41015625 0.0 0.0 0.0 1.0753125 0.53765625 4.48046875 0.0 0.0 0.0 0.9988671875 0.6915234375 3.841796875 1.2684375 0.0 7.046875 0.0 0.0 0.0 1.130078125 0.4109375 5.13671875 0.8830078125 1.0007421875 2.943359375 0.0 0.0 0.0 0.9253125 0.85921875 3.3046875 0.0 0.0 0.0 0.0 0.0 0.0 0.0 0.0 0.0 0.0 0.0 0.0 0.961796875 0.73984375 3.69921875 0.0 0.0 0.0 0.861328125 1.03359375 2.87109375 0.0 0.0 0.0 0.0 0.0 0.0 0.89796875 0.89796875 3.20703125 1.2534375 -0.358125 8.953125 0.0 0.0 0.0 0.0 0.0 0.0 0.0 0.0 0.0 0.0 0.0 0.0 0.59677734375 0.75591796875 1.9892578125 0.0 0.0 0.0 0.0 0.0 0.0 1.52734375 -1.221875 15.2734375 0.873359375 0.9357421875 3.119140625 0.0 0.0 0.0 0.0 0.0 0.0 1.013203125 0.55265625 4.60546875 0.0 0.0 0.0 0.0427001953125 0.05693359375 0.142333984375 1.06015625 0.4240625 5.30078125 0.898828125 0.8296875 3.45703125 0.93890625 0.7041796875 3.912109375 0.0 0.0 0.0 0.851484375 0.973125 3.041015625 0.0 0.0 0.0 0.0 0.0 0.0 0.0 0.0 0.0 5.918741226196289e-06 8.286237716674805e-06 1.9729137420654297e-05 0.0 0.0 0.0 0.961640625 0.611953125 4.37109375 0.0 0.0 0.0 0.8698828125 0.8698828125 3.345703125 0.0 0.0 0.0 0.83125 1.009375 2.96875 0.0 0.0 0.0 0.0 0.0 0.0 0.0 0.0 0.0 0.0 0.0 0.0 1.0653125 0.0 7.609375 0.0 0.0 0.0 0.0 0.0 0.0 0.0 0.0 0.0 0.8434765625 0.908359375 3.244140625 0.813203125 1.045546875 2.904296875 0.0 0.0 0.0 0.0 0.0 0.0 0.0 0.0 0.0 0.94765625 0.56859375 4.73828125 0.985078125 0.4378125 5.47265625 0.0 0.0 0.0 0.9390625 -0.375625 9.390625 0.0 0.0 0.0 0.0 0.0 0.0 0.7940625 1.07765625 2.8359375 0.0 0.0 0.0 0.8769921875 0.7175390625 3.986328125 0.0 0.0 0.0 0.8409375 0.8409375 3.50390625 0.0 0.0 0.0 0.0 0.0 0.0 0.0 0.0 0.0 0.8984375 0.62890625 4.4921875 0.0 0.0 0.0 0.39265625 0.5609375 1.40234375 0.7987890625 0.983125 3.072265625 0.0 0.0 0.0 0.0 0.0 0.0 0.0 0.0 0.0 0.8426171875 0.766015625 3.830078125 0.8128125 0.880546875 3.38671875 0.0 0.0 0.0 0.0 0.0 0.0 0.92640625 0.2646875 6.6171875 0.00237335205078125 0.003560028076171875 0.00847625732421875 0.0 0.0 0.0 0.7794921875 1.0193359375 2.998046875 0.0 0.0 0.0 0.90375 0.451875 5.6484375 0.878203125 0.58546875 4.87890625 0.0 0.0 0.0 0.0 0.0 0.0 0.78796875 0.919296875 3.283203125 0.0 0.0 0.0 1.6689300537109377e-08 2.6226043701171875e-08 5.960464477539063e-08 0.0 0.0 0.0 0.0 0.0 0.0 0.7622265625 1.055390625 2.931640625 0.0 0.0 0.0 0.80546875 0.0 8.0546875 0.81328125 0.731953125 4.06640625 0.0 0.0 0.0 0.0 0.0 0.0 0.0 0.0 0.0 0.0 0.0 0.0 0.7816015625 0.85265625 3.552734375 0.0 0.0 0.0 0.5728125 -0.381875 9.546875 0.74546875 1.08953125 2.8671875 0.0 0.0 0.0 0.819375 0.273125 6.828125 0.0 0.0 0.0 0.0 0.0 0.0 0.0 0.0 0.0 0.0 0.0 0.0 0.0 0.0 0.0 0.7453125 0.99375 3.10546875 0.814296875 0.4653125 5.81640625 0.7549609375 0.8922265625 3.431640625 0.6941796875 1.06796875 2.669921875 0.8025 0.601875 5.015625 0.0 0.0 0.0 0.0 0.0 0.0 0.0 0.0 0.0 0.658125 0.0 8.2265625 0.0 0.0 0.0 0.0 0.0 0.0 0.0 0.0 0.0 0.72703125 1.0299609375 3.029296875 0.0 0.0 0.0 0.197919921875 0.319716796875 0.76123046875 0.731328125 0.93078125 3.32421875 0.0 0.0 0.0 0.0 0.0 0.0 0.747421875 0.747421875 4.15234375 0.0 0.0 0.0 0.75625 0.66171875 4.7265625 0.703125 0.28125 7.03125 0.0 0.0 0.0 0.0 0.0 0.0 0.7096875 1.06453125 2.95703125 5.265951156616211e-05 8.911609649658202e-05 0.00020253658294677734 0.72109375 0.8653125 3.60546875 0.0 0.0 0.0 0.70984375 0.96796875 3.2265625 0.0 0.0 0.0 0.7190625 0.479375 5.9921875 0.0 0.0 0.0 0.0 0.0 0.0 0.7147265625 0.794140625 3.970703125 0.0 0.0 0.0 0.72078125 0.6178125 5.1484375 0.0 0.0 0.0 0.1921875 -0.384375 9.609375 0.0 0.0 0.0 0.0 0.0 0.0 0.69609375 0.904921875 3.48046875 0.6909375 1.005 3.140625 0.0 0.0 0.0 0.0 0.0 0.0 0.0 0.0 0.0 0.0 0.0 0.0 0.0 0.0 0.0 0.0 0.0 0.0 0.6796875 1.1328125 2.83203125 0.0 0.0 0.0 0.0 0.0 0.0 0.0 0.0 0.0 0.679375 0.764296875 4.24609375 0.0 0.0 0.0 0.6733203125 1.0405859375 3.060546875 0.0 0.0 0.0 0.0 0.0 0.0 0.0 0.0 0.0 0.339375 0.0 8.484375 0.61640625 0.493125 6.1640625 0.48375 0.8465625 2.015625 0.0 0.0 0.0 0.0 0.0 0.0 0.6591796875 0.87890625 3.662109375 0.0 0.0 0.0 0.0 0.0 0.0 0.63375 0.63375 5.28125 0.6569921875 1.075078125 2.986328125 0.653515625 0.9802734375 3.267578125 0.6409375 0.7325 4.578125 0.0 0.0 0.0 0.0 0.0 0.0 0.01787109375 0.032763671875 0.074462890625 0.0 0.0 0.0 0.0 0.0 0.0 0.442734375 0.29515625 7.37890625 0.0 0.0 0.0 0.0 0.0 0.0 0.635625 0.918125 3.53125 0.0 0.0 0.0 0.641953125 1.108828125 2.91796875 0.0 0.0 0.0 0.63515625 1.01625 3.17578125 0.171875 0.0 8.59375 1.430511474609375e-08 2.741813659667969e-08 5.960464477539063e-08 0.0 0.0 0.0 0.607578125 0.781171875 4.33984375 0.0 0.0 0.0 0.5059375 0.5059375 6.32421875 0.0 0.0 0.0 0.0 0.0 0.0 0.0 0.0 0.0 0.0 0.0 0.0 0.628203125 1.1421875 2.85546875 0.0 0.0 0.0 0.0 0.0 0.0 0.0 0.0 0.0 0.541796875 0.65015625 5.41796875 0.0 0.0 0.0 0.0 0.0 0.0 0.5953125 0.89296875 3.720703125 0.0 0.0 0.0 0.5625 0.75 4.6875 0.578046875 0.82578125 4.12890625 0.0 0.0 0.0 0.0 0.0 0.0 0.59984375 1.14515625 2.7265625 0.0 0.0 0.0 0.595546875 0.992578125 3.30859375 0.0 0.0 0.0 0.603125 1.085625 3.015625 0.0 0.0 0.0 0.0 0.0 0.0 0.0 0.0 0.0 0.0 0.0 0.0 0.0 0.0 0.0 0.5740625 0.9328515625 3.587890625 0.388828125 0.5184375 6.48046875 0.0 0.0 0.0 0.168759765625 0.33751953125 0.76708984375 0.55234375 0.86796875 3.9453125 0.0 0.0 0.0 0.0 0.0 0.0 0.5783203125 1.028125 3.212890625 0.5890625 1.11921875 2.9453125 0.0 0.0 0.0 0.0 0.0 0.0 0.0 0.0 0.0 0.4446875 0.66703125 5.55859375 0.15328125 0.3065625 7.6640625 0.0 0.0 0.0 0.0 0.0 0.0 4.4453144073486325e-05 9.294748306274415e-05 0.00020205974578857422 -0.1775 0.0 8.875 0.0 0.0 0.0 0.4796875 0.7675 4.796875 0.0 0.0 0.0 0.529921875 0.9084375 3.78515625 0.576171875 1.15234375 2.880859375 0.0 0.0 0.0 0.0 0.0 0.0 0.0 0.0 0.0 0.0 0.0 0.0 0.0 0.0 0.0 0.0 0.0 0.0 0.0 0.0 0.0 0.26546875 0.5309375 6.63671875 0.0 0.0 0.0 0.5365625 1.0060546875 3.353515625 0.0 0.0 0.0 0.0 0.0 0.0 0.0 0.0 0.0 0.56484375 1.186171875 2.82421875 0.5480859375 1.096171875 3.044921875 0.510234375 0.947578125 3.64453125 0.0 0.0 0.0 0.48234375 0.884296875 4.01953125 0.0 0.0 0.0 -0.16875 0.16875 8.4375 0.341953125 0.68390625 5.69921875 0.0 0.0 0.0 0.0 0.0 0.0 0.0 0.0 0.0 0.0 0.0 0.0 0.520625 1.04125 3.25390625 0.0 0.0 0.0 0.40234375 0.88515625 2.01171875 0.0 0.0 0.0 0.5354296875 1.1303515625 2.974609375 0.0 0.0 0.0 0.0 0.0 0.0 0.4924609375 0.984921875 3.517578125 0.0 0.0 0.0 0.429296875 0.85859375 4.29296875 0.462421875 0.92484375 3.853515625 0.1359375 0.54375 6.796875 0.0 0.0 0.0 0.0 0.0 0.0 0.0 0.0 0.0 0.0 0.0 0.0 0.0148681640625 0.03419677734375 0.0743408203125 0.0 0.0 0.0 0.0 0.0 0.0 0.523828125 1.1640625 2.91015625 -0.346875 0.1734375 8.671875 0.0 0.0 0.0 0.0 0.0 0.0 0.0 0.0 0.0 0.4760546875 1.0201171875 3.400390625 0.0 0.0 0.0 0.23375 0.70125 5.84375 0.0 0.0 0.0 0.444609375 0.9633203125 3.705078125 0.0 0.0 0.0 1.1920928955078126e-08 2.86102294921875e-08 5.960464477539063e-08 0.0 0.0 0.0 0.4928125 1.108828125 3.080078125 0.0 0.0 0.0 0.5129296875 1.1968359375 2.849609375 0.0 0.0 0.0 0.0 0.0 0.0 0.301640625 0.804375 5.02734375 0.0 0.0 0.0 0.0 0.0 0.0 0.0 0.556875 6.9609375 0.4612890625 1.054375 3.294921875 0.0 0.0 0.0 0.0 0.0 0.0 0.3503125 0.87578125 4.37890625 0.0 0.0 0.0 0.4284375 0.9996875 3.5703125 0.3923828125 0.94171875 3.923828125 0.4809375 1.1422265625 3.005859375 0.490078125 1.19796875 2.72265625 0.0 0.0 0.0 0.0 0.0 0.0 0.0 0.0 0.0 0.0 0.0 0.0 0.0 0.0 0.0 0.0 0.0 0.0 0.0 0.0 0.0 0.12 0.72 6.0 0.4481640625 1.0883984375 3.201171875 0.0 0.0 0.0 0.0 0.0 0.0 0.0 0.0 0.0 0.0 0.0 0.0 0.0 0.0 0.0 0.13798828125 0.35263671875 0.7666015625 0.0 0.0 0.0 0.3767578125 0.9795703125 3.767578125 0.0 0.0 0.0 0.0 0.0 0.0 -0.1428125 0.57125 7.140625 0.20609375 0.824375 5.15234375 0.0 0.0 0.0 -0.3121875 0.46828125 7.8046875 -0.51234375 0.3415625 8.5390625 0.0 0.0 0.0 0.43640625 1.1221875 3.1171875 0.0 0.0 0.0 0.0 0.0 0.0 0.0 0.0 0.0 3.634929656982422e-05 9.693145751953125e-05 0.00020194053649902344 0.460625 1.209140625 2.87890625 0.0 0.0 0.0 0.401015625 1.069375 3.341796875 0.0 0.0 0.0 0.31953125 0.95859375 3.994140625 0.362890625 1.01609375 3.62890625 0.0 0.0 0.0 0.0 0.0 0.0 0.0 0.74015625 6.16796875 0.0 0.0 0.0 0.0 0.0 0.0 0.0 0.0 0.0 0.4257421875 1.1555859375 3.041015625 0.0 0.0 0.0 -0.1346875 0.6734375 6.734375 0.0 0.0 0.0 0.4515625 1.241796875 2.822265625 0.0 0.0 0.0 -0.29359375 0.5871875 7.33984375 0.0 0.0 0.0 0.389296875 1.1030078125 3.244140625 0.0 0.0 0.0 0.0 0.0 0.0 0.105703125 0.845625 5.28515625 0.350390625 1.051171875 3.50390625 0.0 0.0 0.0 0.0 0.0 0.0 0.0 0.0 0.0 0.0 0.0 0.0 0.4158984375 1.18828125 2.970703125 0.0 0.0 0.0 0.0 0.0 0.0 0.3215625 0.9244921875 2.009765625 0.0 0.0 0.0 0.183125 0.915625 4.578125 0.0 0.0 0.0 0.0 0.0 0.0 0.0 0.0 0.0 0.378984375 1.136953125 3.158203125 -0.126875 0.76125 6.34375 0.0 0.0 0.0 0.243984375 0.9759375 4.06640625 0.0 0.0 0.0 0.3392578125 1.085625 3.392578125 0.29515625 1.033046875 3.689453125 0.0 0.0 0.0 0.406875 1.220625 2.90625 -0.454453125 0.6059375 7.57421875 0.01185546875 0.03556640625 0.0740966796875 0.0 0.0 0.0 0.0 0.0 0.0 0.0 0.0 0.0 0.0 0.0 0.0 0.0 0.0 0.0 0.0 0.0 0.0 0.0 0.0 0.0 0.369140625 1.1689453125 3.076171875 0.0 0.0 0.0 0.0 0.0 0.0 0.0 0.0 0.0 0.0 0.0 0.0 0.0 0.0 0.0 0.3291015625 1.1189453125 3.291015625 0.398671875 1.25296875 2.84765625 0.285 1.06875 3.5625 0.0 0.0 0.0 0.0 0.0 0.0 0.0 0.0 0.0 0.0 0.0 0.0 0.09375 0.9375 4.6875 -0.2609375 0.7828125 6.5234375 0.0 0.0 0.0 0.0 0.0 0.0 0.0 0.0 0.0 0.36046875 1.2015625 3.00390625 0.0 0.0 0.0 -0.628125 0.628125 7.8515625 0.0 0.0 0.0 0.16578125 0.9946875 4.14453125 0.0 0.0 0.0 0.371328125 1.220078125 2.65234375 0.319921875 1.15171875 3.19921875 0.0 0.0 0.0 0.225234375 1.05109375 3.75390625 0.27546875 1.101875 3.443359375 0.0 0.0 0.0 0.0 0.0 0.0 0.0 0.0 0.0 0.0 0.0 0.0 -0.111328125 0.890625 5.56640625 0.0 0.0 0.0 0.0 0.0 0.0 0.352265625 1.2329296875 2.935546875 0.0 0.0 0.0 0.0 0.0 0.0 0.0 0.0 0.0 -0.24484375 0.856953125 6.12109375 0.030078125 0.103125 0.21484375 0.0 0.0 0.0 0.0 0.0 0.0 0.311328125 1.183046875 3.11328125 -0.4021875 0.804375 6.703125 0.0 0.0 0.0 0.0 0.0 0.0 0.26703125 1.1348828125 3.337890625 -0.815625 0.6525 8.15625 0.0 0.0 0.0 0.0 0.0 0.0 0.0 0.0 0.0 0.0 0.0 0.0 0.344765625 1.264140625 2.873046875 0.0 0.0 0.0 0.0 0.0 0.0 0.0 0.0 0.0 -0.104609375 0.941484375 5.23046875 0.084609375 1.0153125 4.23046875 0.0 0.0 0.0 0.0 0.0 0.0 0.0 0.0 0.0 0.3037109375 1.21484375 3.037109375 0.0 0.0 0.0 0.0 0.0 0.0 0.152734375 1.069140625 3.818359375 0.0 0.0 0.0 0.25921875 1.166484375 3.240234375 0.2098828125 1.119375 3.498046875 0.0 0.0 0.0 0.0 0.0 0.0 0.33703125 1.291953125 2.80859375 0.0 0.0 0.0 0.0 0.0 0.0 0.0 0.0 0.0 -0.55125 0.826875 6.890625 0.0 0.0 0.0 -0.758203125 0.758203125 7.58203125 0.0 0.0 0.0 0.0 0.0 0.0 0.0 0.0 0.0 0.2966796875 1.2460546875 2.966796875 -0.098515625 0.98515625 4.92578125 0.0 0.0 0.0 0.0 0.0 0.0 0.0 0.0 0.0 0.0 0.0 0.0 0.2521875 1.197890625 3.15234375 0.0 0.0 0.0 0.15890625 0.635625 1.32421875 0.0 0.0 0.0 -0.2146875 0.96609375 5.3671875 0.0 0.0 0.0 0.0 0.0 0.0 0.0 0.0 0.0 0.0 1.0378125 4.32421875 0.0 0.0 0.0 0.0 0.0 0.0 -0.353203125 0.941875 5.88671875 0.0 0.0 0.0 0.290234375 1.27703125 2.90234375 0.0 0.0 0.0 0.0 0.0 0.0 -0.518125 0.90671875 6.4765625 0.0776953125 1.087734375 3.884765625 0.0 0.0 0.0 -0.708984375 0.85078125 7.08984375 0.24578125 1.22890625 3.072265625 0.0 0.0 0.0 0.14203125 1.13625 3.55078125 0.1969921875 1.181953125 3.283203125 0.0 0.0 0.0 0.0 0.0 0.0 0.0 0.0 0.0 0.0 0.0 0.0 0.0 0.0 0.0 0.0 0.0 0.0 -0.2021875 1.0109375 5.0546875 0.0 0.0 0.0 0.284375 1.308125 2.84375 0.0 0.0 0.0 0.0 0.0 0.0 0.0 0.0 0.0 0.0 0.0 0.0 0.0 0.0 0.0 -0.330703125 0.992109375 5.51171875 0.0 0.0 0.0 0.24 1.26 3.0 0.0 0.0 0.0 0.0 0.0 0.0 0.0 0.0 0.0 0.191484375 1.212734375 3.19140625 -0.088359375 1.0603125 4.41796875 0.0 0.0 0.0 0.0 0.0 0.0 -0.665234375 0.931328125 6.65234375 0.0 0.0 0.0 -0.8765625 0.8765625 7.3046875 0.14697265625 0.70546875 1.4697265625 0.0 0.0 0.0 0.0 0.0 0.0 0.0 0.0 0.0 0.0 0.0 0.0 0.0 1.107421875 3.955078125 0.0 0.0 0.0 0.0 0.0 0.0 0.0 0.0 0.0 0.2346875 1.29078125 2.93359375 0.0 0.0 0.0 0.0 0.0 0.0 0.072109375 1.15375 3.60546875 0.0 0.0 0.0 0.1865625 1.24375 3.109375 0.133125 1.198125 3.328125 0.0 0.0 0.0 0.0 0.0 0.0 0.0 0.0 0.0 -0.08421875 1.09484375 4.2109375 0.0 0.0 0.0 -0.4534375 1.020234375 5.66796875 0.0 0.0 0.0 0.0 0.0 0.0 0.0 0.0 0.0 0.0 0.0 0.0 -0.6234375 0.9975 6.234375 0.0 0.0 0.0 0.0 0.0 0.0 0.22984375 1.3216015625 2.873046875 -1.054375 0.90375 7.53125 -0.18078125 1.0846875 4.51953125 0.0 0.0 0.0 0.0 0.0 0.0 0.0 0.0 0.0 0.182109375 1.274765625 3.03515625 0.0 0.0 0.0 0.129296875 1.2283203125 3.232421875 0.0 0.0 0.0 0.0 0.0 0.0 0.0 0.0 0.0 -0.2934375 1.0759375 4.890625 0.0 0.0 0.0 0.0 0.0 0.0 -0.080546875 1.12765625 4.02734375 0.0 0.0 0.0 0.0 0.0 0.0 0.0 0.0 0.0 0.0 0.0 0.0 0.20828125 1.2496875 2.603515625 0.0 0.0 0.0 0.0 0.0 0.0 0.0 0.0 0.0 0.0 1.171875 3.662109375 0.0 0.0 0.0 -0.5828125 1.0490625 5.828125 0.1780078125 1.305390625 2.966796875 -0.171875 1.1171875 4.296875 0.0675390625 1.215703125 3.376953125 0.1259375 1.259375 3.1484375 0.0 0.0 0.0 -0.984375 0.984375 7.03125 0.0 0.0 0.0 0.0 0.0 0.0 0.0 0.0 0.0 0.0 0.0 0.0 0.0 0.0 0.0 0.0 0.0 0.0 -0.277265625 1.1090625 4.62109375 -0.0773046875 1.1595703125 3.865234375 0.0 0.0 0.0 0.0 0.0 0.0 0.0 0.0 0.0 0.0 0.0 0.0 0.0 0.0 0.0 0.0 0.0 0.0 0.0 0.0 0.0 0.1742578125 1.3359765625 2.904296875 0.0 0.0 0.0 0.0 0.0 0.0 0.0 0.0 0.0 0.122890625 1.2903515625 3.072265625 0.0 0.0 0.0 -0.16421875 1.14953125 4.10546875 -0.545703125 1.09140625 5.45703125 0.0 0.0 0.0 0.0 0.0 0.0 0.0 0.0 0.0 0.0 0.0 0.0 -0.71859375 1.077890625 5.98828125 0.0 0.0 0.0 0.0 0.0 0.0 -0.920390625 1.051875 6.57421875 -1.15875 1.01390625 7.2421875 -0.074453125 1.19125 3.72265625 -0.2634375 1.1415625 4.390625 0.0 0.0 0.0 0.0 0.0 0.0 0.1618359375 1.2946875 2.697265625 0.0 0.0 0.0 0.0 0.0 0.0 0.0 1.23328125 3.42578125 0.0 0.0 0.0 0.120078125 1.320859375 3.001953125 0.063828125 1.2765625 3.19140625 -0.3784375 1.1353125 4.73046875 0.0 0.0 0.0 0.0 0.0 0.0 0.0 0.0 0.0 -0.157421875 1.1806640625 3.935546875 0.0 0.0 0.0 0.0 0.0 0.0 0.0 0.0 0.0 -0.513671875 1.130078125 5.13671875 0.0 0.0 0.0 0.0 0.0 0.0 0.0 0.0 0.0 0.0 0.0 0.0 0.0 0.0 0.0 -0.071875 1.221875 3.59375 0.0 0.0 0.0 0.0 0.0 0.0 -0.25125 1.1725 4.1875 -0.8596875 1.1053125 6.140625 0.0 0.0 0.0 0.1175 1.35125 2.9375 0.0 0.0 0.0 0.062265625 1.307578125 3.11328125 0.0 0.0 0.0 0.0 0.0 0.0 0.0 0.0 0.0 0.0 0.0 0.0 0.0 0.0 0.0 -0.3590625 1.166953125 4.48828125 0.0 0.0 0.0 -0.151484375 1.211875 3.787109375 0.0 0.0 0.0 0.0 0.0 0.0 0.0 0.0 0.0 0.0 0.0 0.0 0.0 0.0 0.0 0.0 0.0 0.0 -0.484765625 1.1634375 4.84765625 0.0 0.0 0.0 -0.0695703125 1.252265625 3.478515625 0.0 0.0 0.0 0.0 0.0 0.0 0.109140625 1.3096875 2.728515625 0.0 0.0 0.0 0.0 1.29453125 3.236328125 0.0608203125 1.338046875 3.041015625 0.0 0.0 0.0 0.0 0.0 0.0 0.0 0.0 0.0 -0.804453125 1.14921875 5.74609375 0.0 0.0 0.0 0.0 0.0 0.0 -1.0075 1.1334375 6.296875 -1.2515625 1.1125 6.953125 0.0 0.0 0.0 0.0 0.0 0.0 -0.14609375 1.241796875 3.65234375 0.0 0.0 0.0 0.0 0.0 0.0 0.0 0.0 0.0 0.0 0.0 0.0 0.0 0.0 0.0 0.0 0.0 0.0 0.0 0.0 0.0 -0.0675 1.2825 3.375 0.0 0.0 0.0 -0.459375 1.194375 4.59375 0.0 0.0 0.0 0.0594921875 1.3683203125 2.974609375 0.0 0.0 0.0 0.0 0.0 0.0 -0.231328125 1.23375 3.85546875 0.0 0.0 0.0 0.0 0.0 0.0 -0.59625 1.1925 4.96875 0.0 0.0 0.0 0.0 0.0 0.0 0.0 0.0 0.0 0.0 0.0 0.0 0.0 0.0 0.0 -0.756328125 1.188515625 5.40234375 0.0 0.0 0.0 -0.14140625 1.27265625 3.53515625 0.0 0.0 0.0 -0.3271875 1.226953125 4.08984375 0.0 0.0 0.0 -1.163671875 1.163671875 6.46484375 0.0 0.0 0.0 0.0 0.0 0.0 -0.065703125 1.3140625 3.28515625 0.0 0.0 0.0 0.055234375 1.325625 2.76171875 0.0 1.35609375 3.08203125 0.0 0.0 0.0 0.0 0.0 0.0 -0.437109375 1.22390625 4.37109375 0.0 0.0 0.0 0.0 0.0 0.0 -0.2230078125 1.2637109375 3.716796875 0.0 0.0 0.0 0.0 0.0 0.0 0.0 0.0 0.0 0.0 0.0 0.0 0.0 0.0 0.0 -0.56390625 1.221796875 4.69921875 0.0 0.0 0.0 0.0 0.0 0.0 0.0 0.0 0.0 -0.137109375 1.3025390625 3.427734375 0.0 0.0 0.0 0.0 0.0 0.0 -0.713125 1.2225 5.09375 -0.31421875 1.256875 3.927734375 0.0 0.0 0.0 -0.0640234375 1.3444921875 3.201171875 0.0 0.0 0.0 0.0 1.3862890625 3.013671875 0.0 0.0 0.0 0.0 0.0 0.0 -1.085625 1.20625 6.03125 -1.3296875 1.19671875 6.6484375 0.0 0.0 0.0 0.0 0.0 0.0 0.0 0.0 0.0 -0.417578125 1.252734375 4.17578125 -0.215625 1.29375 3.59375 0.0 0.0 0.0 0.0 0.0 0.0 0.0 0.0 0.0 0.0 0.0 0.0 0.0 0.0 0.0 0.0 0.0 0.0 0.0 0.0 0.0 0.0 0.0 0.0 -0.133359375 1.33359375 3.333984375 0.0 0.0 0.0 0.0 0.0 0.0 0.0 0.0 0.0 0.0 0.0 0.0 -0.0625 1.375 3.125 0.0 1.3425 2.796875 0.0 0.0 0.0 -0.67375 1.25125 4.8125 0.0 0.0 0.0 0.0 0.0 0.0 0.0 0.0 0.0 0.0 0.0 0.0 0.0 0.0 0.0 -0.83375 1.250625 5.2109375 0.0 0.0 0.0 0.0 0.0 0.0 0.0 0.0 0.0 -0.2089453125 1.3233203125 3.482421875 -0.400390625 1.28125 4.00390625 -1.234375 1.234375 6.171875 0.0 0.0 0.0 0.0 0.0 0.0 0.0 0.0 0.0 0.0 0.0 0.0 0.0 0.0 0.0 -0.129921875 1.3641796875 3.248046875 0.0 0.0 0.0 0.0 0.0 0.0 0.0 0.0 0.0 -0.06109375 1.40515625 3.0546875 0.0 0.0 0.0 0.0 0.0 0.0 0.0 0.0 0.0 -0.2925 1.31625 3.65625 0.0 0.0 0.0 0.0 0.0 0.0 0.0 0.0 0.0 0.0 0.0 0.0 -0.639296875 1.27859375 4.56640625 0.0 0.0 0.0 0.0 0.0 0.0 0.0 0.0 0.0 0.0 0.0 0.0 0.0 0.0 0.0 -0.2030859375 1.35390625 3.384765625 -0.786875 1.278671875 4.91796875 0.0 0.0 0.0 -0.3853515625 1.3101953125 3.853515625 0.0 0.0 0.0 0.0 0.0 0.0 -0.95765625 1.276875 5.3203125 -0.12671875 1.39390625 3.16796875 0.0 0.0 0.0 -1.15390625 1.269296875 5.76953125 -0.056640625 1.359375 2.83203125 0.0 0.0 0.0 0.0 0.0 0.0 0.0 0.0 0.0 0.0 0.0 0.0 -0.48984375 1.30625 4.08203125 0.0 0.0 0.0 -0.28328125 1.3455859375 3.541015625 0.0 0.0 0.0 0.0 0.0 0.0 0.0 0.0 0.0 0.0 0.0 0.0 0.0 0.0 0.0 0.0 0.0 0.0 0.0 0.0 0.0 -0.60921875 1.30546875 4.3515625 0.0 0.0 0.0 -0.1976953125 1.3838671875 3.294921875 0.0 0.0 0.0 0.0 0.0 0.0 0.0 0.0 0.0 0.0 0.0 0.0 -0.371875 1.33875 3.71875 -0.123828125 1.4240234375 3.095703125 0.0 0.0 0.0 0.0 0.0 0.0 0.0 0.0 0.0 0.0 0.0 0.0 0.0 0.0 0.0 -0.90421875 1.30609375 5.0234375 0.0 0.0 0.0 0.0 0.0 0.0 0.0 0.0 0.0 -1.0859375 1.303125 5.4296875 0.0 0.0 0.0 -0.275 1.375 3.4375 0.0 0.0 0.0 0.0 0.0 0.0 0.0 0.0 0.0 0.0 0.0 0.0 0.0 0.0 0.0 0.0 0.0 0.0 0.0 0.0 0.0 0.0 0.0 0.0 -0.1927734375 1.413671875 3.212890625 0.0 0.0 0.0 -0.58296875 1.3325 4.1640625 0.0 0.0 0.0 0.0 0.0 0.0 -0.114765625 1.3771875 2.869140625 0.0 0.0 0.0 -0.3599609375 1.3678515625 3.599609375 0.0 0.0 0.0 0.0 0.0 0.0 0.0 0.0 0.0 -0.71125 1.33359375 4.4453125 0.0 0.0 0.0 0.0 0.0 0.0 0.0 0.0 0.0 0.0 0.0 0.0 0.0 0.0 0.0 0.0 0.0 0.0 -0.857109375 1.33328125 4.76171875 -0.2675 1.404375 3.34375 0.0 0.0 0.0 -0.45421875 1.36265625 3.78515625 0.0 0.0 0.0 -1.025 1.3325 5.125 0.0 0.0 0.0 0.0 0.0 0.0 -1.217734375 1.3284375 5.53515625 -0.188203125 1.442890625 3.13671875 0.0 0.0 0.0 0.0 0.0 0.0 0.0 0.0 0.0 0.0 0.0 0.0 0.0 0.0 0.0 -0.5597265625 1.3593359375 3.998046875 0.0 0.0 0.0 0.0 0.0 0.0 -0.34921875 1.396875 3.4921875 0.0 0.0 0.0 0.0 0.0 0.0 0.0 0.0 0.0 0.0 0.0 0.0 0.0 0.0 0.0 0.0 0.0 0.0 -0.68 1.36 4.25 0.0 0.0 0.0 0.0 0.0 0.0 0.0 0.0 0.0 -0.260625 1.4334375 3.2578125 0.0 0.0 0.0 0.0 0.0 0.0 0.0 0.0 0.0 -0.43921875 1.390859375 3.66015625 0.0 0.0 0.0 0.0 0.0 0.0 -0.1744921875 1.3959375 2.908203125 0.0 0.0 0.0 0.0 0.0 0.0 -0.97265625 1.36171875 4.86328125 0.0 0.0 0.0 0.0 0.0 0.0 0.0 0.0 0.0 -1.150703125 1.359921875 5.23046875 0.0 0.0 0.0 -1.3546875 1.3546875 5.64453125 -0.5394921875 1.387265625 3.853515625 -0.339453125 1.425703125 3.39453125 0.0 0.0 0.0 0.0 0.0 0.0 0.0 0.0 0.0 0.0 0.0 0.0 0.0 0.0 0.0 0.0 0.0 0.0 0.0 0.0 0.0 0.0 0.0 0.0 0.0 0.0 0.0 -0.25453125 1.4635546875 3.181640625 0.0 0.0 0.0 0.0 0.0 0.0 0.0 0.0 0.0 0.0 0.0 0.0 0.0 0.0 0.0 -0.425859375 1.41953125 3.548828125 0.0 0.0 0.0 0.0 0.0 0.0 -0.78046875 1.3875 4.3359375 0.0 0.0 0.0 0.0 0.0 0.0 0.0 0.0 0.0 0.0 0.0 0.0 0.0 0.0 0.0 0.0 0.0 0.0 -0.9265625 1.38984375 4.6328125 0.0 0.0 0.0 0.0 0.0 0.0 -0.330859375 1.45578125 3.30859375 -0.5214453125 1.4153515625 3.724609375 -1.09140625 1.3890625 4.9609375 0.0 0.0 0.0 0.0 0.0 0.0 -1.2796875 1.386328125 5.33203125 -1.493984375 1.3790625 5.74609375 0.0 0.0 0.0 0.0 0.0 0.0 -0.23578125 1.4146875 2.947265625 0.0 0.0 0.0 0.0 0.0 0.0 0.0 0.0 0.0 -0.628125 1.41328125 3.92578125 0.0 0.0 0.0 0.0 0.0 0.0 0.0 0.0 0.0 -0.41390625 1.448671875 3.44921875 0.0 0.0 0.0 0.0 0.0 0.0 0.0 0.0 0.0 0.0 0.0 0.0 0.0 0.0 0.0 -0.748828125 1.414453125 4.16015625 0.0 0.0 0.0 0.0 0.0 0.0 0.0 0.0 0.0 0.0 0.0 0.0 0.0 0.0 0.0 -0.3228515625 1.4851171875 3.228515625 0.0 0.0 0.0 -0.8859375 1.4175 4.4296875 -0.5053125 1.44375 3.609375 0.0 0.0 0.0 0.0 0.0 0.0 0.0 0.0 0.0 0.0 0.0 0.0 -1.03984375 1.41796875 4.7265625 0.0 0.0 0.0 0.0 0.0 0.0 0.0 0.0 0.0 -1.215 1.4175 5.0625 0.0 0.0 0.0 -1.412734375 1.412734375 5.43359375 0.0 0.0 0.0 -0.6065625 1.4405859375 3.791015625 0.0 0.0 0.0 -0.403125 1.478125 3.359375 0.0 0.0 0.0 0.0 0.0 0.0 0.0 0.0 0.0 0.0 0.0 0.0 0.0 0.0 0.0 0.0 0.0 0.0 0.0 0.0 0.0 0.0 0.0 0.0 -0.72 1.44 4.0 0.0 0.0 0.0 -0.298828125 1.434375 2.98828125 0.0 0.0 0.0 0.0 0.0 0.0 0.0 0.0 0.0 0.0 0.0 0.0 -0.49109375 1.47328125 3.5078125 0.0 0.0 0.0 -0.84921875 1.443671875 4.24609375 0.0 0.0 0.0 0.0 0.0 0.0 0.0 0.0 0.0 0.0 0.0 0.0 0.0 0.0 0.0 0.0 0.0 0.0 -0.994296875 1.44625 4.51953125 0.0 0.0 0.0 0.0 0.0 0.0 0.0 0.0 0.0 0.0 0.0 0.0 -0.39328125 1.507578125 3.27734375 0.0 0.0 0.0 0.0 0.0 0.0 -1.341640625 1.44484375 5.16015625 -1.54984375 1.439140625 5.53515625 0.0 0.0 0.0 0.0 0.0 0.0 0.0 0.0 0.0 0.0 0.0 0.0 0.0 0.0 0.0 0.0 0.0 0.0 0.0 0.0 0.0 -0.6950390625 1.4673046875 3.861328125 0.0 0.0 0.0 0.0 0.0 0.0 0.0 0.0 0.0 0.0 0.0 0.0 -0.47796875 1.5021875 3.4140625 0.0 0.0 0.0 0.0 0.0 0.0 0.0 0.0 0.0 0.0 0.0 0.0 -0.815625 1.468125 4.078125 0.0 0.0 0.0 0.0 0.0 0.0 0.0 0.0 0.0 0.0 0.0 0.0 0.0 0.0 0.0 0.0 0.0 0.0 0.0 0.0 0.0 -0.278203125 1.1128125 2.318359375 0.0 0.0 0.0 -0.570625 1.497890625 3.56640625 0.0 0.0 0.0 0.0 0.0 0.0 0.0 0.0 0.0 -1.1053125 1.47375 4.60546875 0.0 0.0 0.0 0.0 0.0 0.0 0.0 0.0 0.0 -1.27765625 1.47421875 4.9140625 0.0 0.0 0.0 -1.4721875 1.4721875 5.2578125 0.0 0.0 0.0 0.0 0.0 0.0 -0.672890625 1.4953125 3.73828125 0.0 0.0 0.0 0.0 0.0 0.0 -0.4659375 1.5309375 3.328125 0.0 0.0 0.0 0.0 0.0 0.0 0.0 0.0 0.0 0.0 0.0 0.0 0.0 0.0 0.0 0.0 0.0 0.0 0.0 0.0 0.0 -0.78671875 1.494765625 3.93359375 0.0 0.0 0.0 0.0 0.0 0.0 0.0 0.0 0.0 0.0 0.0 0.0 0.0 0.0 0.0 0.0 0.0 0.0 0.0 0.0 0.0 -0.5553125 1.527109375 3.470703125 -0.915234375 1.49765625 4.16015625 0.0 0.0 0.0 0.0 0.0 0.0 0.0 0.0 0.0 0.0 0.0 0.0 0.0 0.0 0.0 0.0 0.0 0.0 -1.059375 1.50078125 4.4140625 0.0 0.0 0.0 0.0 0.0 0.0 0.0 0.0 0.0 0.0 0.0 0.0 -1.219765625 1.50125 4.69140625 -0.6525 1.5225 3.625 -0.229140625 0.785625 1.63671875 -1.40109375 1.501171875 5.00390625 -1.604296875 1.49734375 5.34765625 0.0 0.0 0.0 0.0 0.0 0.0 0.0 0.0 0.0 0.0 0.0 0.0 0.0 0.0 0.0 0.0 0.0 0.0 0.0 0.0 0.0 0.0 0.0 0.0 -0.760546875 1.52109375 3.802734375 0.0 0.0 0.0 0.0 0.0 0.0 0.0 0.0 0.0 0.0 0.0 0.0 0.0 0.0 0.0 -0.526875 1.514765625 3.29296875 0.0 0.0 0.0 0.0 0.0 0.0 0.0 0.0 0.0 -0.88171875 1.52296875 4.0078125 0.0 0.0 0.0 0.0 0.0 0.0 0.0 0.0 0.0 0.0 0.0 0.0 0.0 0.0 0.0 0.0 0.0 0.0 0.0 0.0 0.0 -1.0171875 1.52578125 4.23828125 0.0 0.0 0.0 0.0 0.0 0.0 -0.634921875 1.55203125 3.52734375 0.0 0.0 0.0 0.0 0.0 0.0 -1.166953125 1.526015625 4.48828125 0.0 0.0 0.0 0.0 0.0 0.0 0.0 0.0 0.0 -1.3365625 1.5275 4.7734375 0.0 0.0 0.0 -1.52578125 1.52578125 5.0859375 0.0 0.0 0.0 0.0 0.0 0.0 0.0 0.0 0.0 -0.7375 1.54875 3.6875 0.0 0.0 0.0 0.0 0.0 0.0 0.0 0.0 0.0 -0.146796875 0.440390625 0.91748046875 0.0 0.0 0.0 0.0 0.0 0.0 0.0 0.0 0.0 0.0 0.0 0.0 0.0 0.0 0.0 0.0 0.0 0.0 -0.8512109375 1.54765625 3.869140625 0.0 0.0 0.0 0.0 0.0 0.0 0.0 0.0 0.0 0.0 0.0 0.0 0.0 0.0 0.0 0.0 0.0 0.0 0.0 0.0 0.0 0.0 0.0 0.0 -0.571640625 1.460859375 3.17578125 0.0 0.0 0.0 0.0 0.0 0.0 0.0 0.0 0.0 0.0 0.0 0.0 0.0 0.0 0.0 0.0 0.0 0.0 -1.11921875 1.5496875 4.3046875 0.0 0.0 0.0 0.0 0.0 0.0 0.0 0.0 0.0 0.0 0.0 0.0 -1.2775 1.55125 4.5625 0.0 0.0 0.0 -0.71484375 1.57265625 3.57421875 -1.454296875 1.55125 4.84765625 -1.6525 1.54921875 5.1640625 0.0 0.0 0.0 0.0 0.0 0.0 0.0 0.0 0.0 0.0 0.0 0.0 0.0 0.0 0.0 0.0 0.0 0.0 0.0 0.0 0.0 0.0 0.0 0.0 0.0 0.0 0.0 -0.8245703125 1.5741796875 3.748046875 0.0 0.0 0.0 0.0 0.0 0.0 0.0 0.0 0.0 0.0 0.0 0.0 0.0 0.0 0.0 0.0 0.0 0.0 -0.0311572265625 0.0830859375 0.173095703125 0.0 0.0 0.0 0.0 0.0 0.0 -0.9440625 1.5734375 3.93359375 0.0 0.0 0.0 0.0 0.0 0.0 0.0 0.0 0.0 0.0 0.0 0.0 0.0 0.0 0.0 0.0 0.0 0.0 0.0 0.0 0.0 -1.077578125 1.574921875 4.14453125 0.0 0.0 0.0 0.0 0.0 0.0 0.0 0.0 0.0 -0.351171875 0.8076953125 1.755859375 0.0 0.0 0.0 -1.225 1.575 4.375 0.0 0.0 0.0 0.0 0.0 0.0 0.0 0.0 0.0 -1.391015625 1.576484375 4.63671875 0.0 0.0 0.0 -1.57625 1.57625 4.92578125 0.0 0.0 0.0 0.0 0.0 0.0 0.0 0.0 0.0 0.0 0.0 0.0 -0.741640625 1.48328125 3.37109375 0.0 0.0 0.0 0.0 0.0 0.0 0.0 0.0 0.0 0.0 0.0 0.0 0.0 0.0 0.0 0.0 0.0 0.0 0.0 0.0 0.0 0.0 0.0 0.0 0.0 0.0 0.0 0.0 0.0 0.0 -0.91078125 1.5938671875 3.794921875 0.0 0.0 0.0 0.0 0.0 0.0 0.0 0.0 0.0 0.0 0.0 0.0 0.0 0.0 0.0 0.0 0.0 0.0 0.0 0.0 0.0 0.0 0.0 0.0 -1.038984375 1.5984375 3.99609375 -0.00204620361328125 0.004910888671875 0.01023101806640625 0.0 0.0 0.0 0.0 0.0 0.0 0.0 0.0 0.0 0.0 0.0 0.0 0.0 0.0 0.0 -1.17796875 1.598671875 4.20703125 0.0 0.0 0.0 0.0 0.0 0.0 0.0 0.0 0.0 0.0 0.0 0.0 -1.33359375 1.6003125 4.4453125 0.0 0.0 0.0 0.0 0.0 0.0 -0.058759765625 0.122861328125 0.26708984375 -1.7 1.6 5.0 0.0 0.0 0.0 0.0 0.0 0.0 0.0 0.0 0.0 0.0 0.0 0.0 0.0 0.0 0.0 0.0 0.0 0.0 0.0 0.0 0.0 0.0 0.0 0.0 0.0 0.0 0.0 0.0 0.0 0.0 -0.44625 0.818125 1.859375 0.0 0.0 0.0 0.0 0.0 0.0 0.0 0.0 0.0 0.0 0.0 0.0 0.0 0.0 0.0 0.0 0.0 0.0 0.0 0.0 0.0 0.0 0.0 0.0 0.0 0.0 0.0 -0.9308203125 1.5036328125 3.580078125 0.0 0.0 0.0 0.0 0.0 0.0 0.0 0.0 0.0 0.0 0.0 0.0 0.0 0.0 0.0 0.0 0.0 0.0 0.0 0.0 0.0 -1.13203125 1.6171875 4.04296875 0.0 0.0 0.0 0.0 0.0 0.0 0.0 0.0 0.0 0.0 0.0 0.0 -5.468130111694336e-06 1.1930465698242187e-05 2.485513687133789e-05 -1.280859375 1.622421875 4.26953125 0.0 0.0 0.0 0.0 0.0 0.0 0.0 0.0 0.0 -1.4425 1.6228125 4.5078125 0.0 0.0 0.0 -1.62296875 1.62296875 4.7734375 0.0 0.0 0.0 0.0 0.0 0.0 0.0 0.0 0.0 0.0 0.0 0.0 0.0 0.0 0.0 -0.0025946044921875 0.004972991943359375 0.01081085205078125 0.0 0.0 0.0 0.0 0.0 0.0 0.0 0.0 0.0 0.0 0.0 0.0 0.0 0.0 0.0 0.0 0.0 0.0 0.0 0.0 0.0 0.0 0.0 0.0 0.0 0.0 0.0 0.0 0.0 0.0 -0.0735693359375 0.124501953125 0.282958984375 0.0 0.0 0.0 0.0 0.0 0.0 0.0 0.0 0.0 0.0 0.0 0.0 0.0 0.0 0.0 0.0 0.0 0.0 0.0 0.0 0.0 0.0 0.0 0.0 -0.552890625 0.8293359375 1.974609375 0.0 0.0 0.0 0.0 0.0 0.0 0.0 0.0 0.0 0.0 0.0 0.0 0.0 0.0 0.0 0.0 0.0 0.0 -0.898828125 1.1984375 2.99609375 0.0 0.0 0.0 0.0 0.0 0.0 0.0 0.0 0.0 0.0 0.0 0.0 -1.31625 1.563046875 4.11328125 0.0 0.0 0.0 0.0 0.0 0.0 -1.476875 1.56375 4.34375 -0.0 0.0 0.0 0.0 0.0 0.0 0.0 0.0 0.0 0.0 0.0 0.0 0.0 0.0 0.0 0.0 0.0 0.0 0.0 0.0 0.0 0.0 0.0 0.0 0.0 0.0 0.0 0.0 0.0 0.0 0.0 0.0 0.0 0.0 0.0 0.0 -6.849765777587891e-06 1.2118816375732421e-05 2.6345252990722656e-05 0.0 0.0 0.0 0.0 0.0 0.0 0.0 0.0 0.0 0.0 0.0 0.0 0.0 0.0 0.0 0.0 0.0 0.0 0.0 0.0 0.0 0.0 0.0 0.0 0.0 0.0 0.0 -0.0032086181640625 0.0050421142578125 0.0114593505859375 0.0 0.0 0.0 0.0 0.0 0.0 0.0 0.0 0.0 0.0 0.0 0.0 0.0 0.0 0.0 0.0 0.0 0.0 0.0 0.0 0.0 -0.06104736328125 0.08546630859375 0.2034912109375 0.0 0.0 0.0 0.0 0.0 0.0 0.0 0.0 0.0 0.0 0.0 0.0 0.0 0.0 0.0 -0.3690625 0.461328125 1.1533203125 0.0 0.0 0.0 0.0 0.0 0.0 0.0 0.0 0.0 -0.44791015625 0.50060546875 1.3173828125 0.0 0.0 0.0 -0.501328125 0.501328125 1.392578125 0.0 0.0 0.0 0.0 0.0 0.0 0.0 0.0 0.0 0.0 0.0 0.0 0.0 0.0 0.0 0.0 0.0 0.0 -0.0 0.0 0.0 0.0 0.0 0.0 0.0 0.0 0.0 0.0 0.0 0.0 0.0 0.0 0.0 0.0 0.0 0.0 0.0 0.0 0.0 0.0 0.0 0.0 0.0 0.0 0.0 0.0 0.0 0.0 0.0 0.0 0.0 -0.0 0.0 0.0 0.0 0.0 0.0 0.0 0.0 0.0 0.0 0.0 0.0 0.0 0.0 0.0 0.0 0.0 0.0 0.0 0.0 0.0 0.0 0.0 0.0 0.0 0.0 0.0 -8.38637351989746e-06 1.230001449584961e-05 2.7954578399658203e-05 0.0 0.0 0.0 0.0 0.0 0.0 0.0 0.0 0.0 0.0 0.0 0.0 0.0 0.0 0.0 0.0 0.0 0.0 -9.75799560546875e-05 0.00012807369232177733 0.00030493736267089844 0.0 0.0 0.0 0.0 0.0 0.0 0.0 0.0 0.0 0.0 0.0 0.0 -0.00435791015625 0.005126953125 0.0128173828125 0.0 0.0 0.0 0.0 0.0 0.0 -0.00486968994140625 0.005140228271484375 0.01352691650390625 -0.0054388427734375 0.005152587890625 0.014312744140625 0.0 0.0 0.0 0.0 0.0 0.0 0.0 0.0 0.0 0.0 0.0 0.0 0.0 0.0 0.0 0.0 0.0 0.0 0.0 0.0 0.0 0.0 0.0 0.0 0.0 0.0 0.0 0.0 0.0 0.0 0.0 0.0 0.0 0.0 0.0 0.0 -0.0 0.0 0.0 0.0 0.0 0.0 0.0 0.0 0.0 0.0 0.0 0.0 0.0 0.0 0.0 0.0 0.0 0.0 0.0 0.0 0.0 0.0 0.0 0.0 0.0 0.0 0.0 0.0 0.0 0.0 -0.0 0.0 0.0 0.0 0.0 0.0 0.0 0.0 0.0 0.0 0.0 0.0 0.0 0.0 0.0 0.0 0.0 0.0 0.0 0.0 0.0 0.0 0.0 0.0 -0.0 0.0 0.0 0.0 0.0 0.0 0.0 0.0 0.0 0.0 0.0 0.0 0.0 0.0 0.0 0.0 0.0 0.0 -2.0265579223632814e-08 2.503395080566406e-08 5.960464477539063e-08 0.0 0.0 0.0 0.0 0.0 0.0 0.0 0.0 0.0 -2.1457672119140624e-08 2.384185791015625e-08 5.960464477539063e-08 0.0 0.0 0.0 -2.2649765014648438e-08 2.2649765014648438e-08 5.960464477539063e-08 0.0 0.0 0.0 0.0 0.0 0.0 0.0 0.0 0.0 0.0 0.0 0.0 0.0 0.0 0.0 0.0 0.0 0.0 0.0 0.0 0.0 0.0 0.0 0.0 0.0 0.0 0.0 0.0 0.0 0.0 0.0 0.0 0.0 0.0 0.0 0.0 0.0 0.0 0.0 0.0 0.0 0.0 0.0 0.0 0.0 0.0 0.0 0.0 0.0 0.0 0.0 0.0 0.0 0.0 -0.0 0.0 0.0 0.0 0.0 0.0 0.0 0.0 0.0 0.0 0.0 0.0 0.0 0.0 0.0 0.0 0.0 0.0 0.0 0.0 0.0 0.0 0.0 0.0 0.0 0.0 0.0 -0.0 0.0 0.0 0.0 0.0 0.0 0.0 0.0 0.0 0.0 0.0 0.0 0.0 0.0 0.0 0.0 0.0 0.0 0.0 0.0 0.0 -0.0 0.0 0.0 0.0 0.0 0.0 0.0 0.0 0.0 0.0 0.0 0.0 0.0 0.0 0.0 -0.0 0.0 0.0 0.0 0.0 0.0 0.0 0.0 0.0 -0.0 0.0 0.0 -0.0 0.0 0.0 0.0 0.0 0.0 0.0 0.0 0.0 0.0 0.0 0.0 0.0 0.0 0.0 0.0 0.0 0.0 0.0 0.0 0.0 0.0 0.0 0.0 0.0 0.0 0.0 0.0 0.0 0.0 0.0 0.0 0.0 0.0 0.0 0.0 0.0 0.0 0.0 0.0 0.0 0.0 0.0 0.0 0.0 0.0 0.0 0.0 0.0 0.0 0.0 0.0 0.0 0.0 0.0 0.0 0.0 0.0 0.0 0.0 0.0 0.0 0.0 0.0 0.0 0.0 0.0 0.0 0.0 0.0 0.0 0.0 -0.0 0.0 0.0 0.0 0.0 0.0 0.0 0.0 0.0 0.0 0.0 0.0 0.0 0.0 0.0 0.0 0.0 0.0 0.0 0.0 0.0 0.0 0.0 0.0 -0.0 0.0 0.0 0.0 0.0 0.0 0.0 0.0 0.0 0.0 0.0 0.0 0.0 0.0 0.0 0.0 0.0 0.0 -0.0 0.0 0.0 0.0 0.0 0.0 0.0 0.0 0.0 0.0 0.0 0.0 -0.0 0.0 0.0 0.0 0.0 0.0 -0.0 0.0 0.0 0.0 0.0 0.0 0.0 0.0 0.0 0.0 0.0 0.0 0.0 0.0 0.0 0.0 0.0 0.0 0.0 0.0 0.0 0.0 0.0 0.0 0.0 0.0 0.0 0.0 0.0 0.0 0.0 0.0 0.0 0.0 0.0 0.0 0.0 0.0 0.0 0.0 0.0 0.0 0.0 0.0 0.0 0.0 0.0 0.0 0.0 0.0 0.0 0.0 0.0 0.0 0.0 0.0 0.0 0.0 0.0 0.0 0.0 0.0 0.0 0.0 0.0 0.0 0.0 0.0 0.0 0.0 0.0 0.0 0.0 0.0 0.0 0.0 0.0 0.0 0.0 0.0 0.0 0.0 0.0 0.0 0.0 0.0 0.0 -0.0 0.0 0.0 0.0 0.0 0.0 0.0 0.0 0.0 0.0 0.0 0.0 0.0 0.0 0.0 0.0 0.0 0.0 0.0 0.0 0.0 -0.0 0.0 0.0 0.0 0.0 0.0 0.0 0.0 0.0 0.0 0.0 0.0 0.0 0.0 0.0 -0.0 0.0 0.0 0.0 0.0 0.0 0.0 0.0 0.0 -0.0 0.0 0.0 -0.0 0.0 0.0 0.0 0.0 0.0 0.0 0.0 0.0 0.0 0.0 0.0 0.0 0.0 0.0 0.0 0.0 0.0 0.0 0.0 0.0 0.0 0.0 0.0 0.0 0.0 0.0 0.0 0.0 0.0 0.0 0.0 0.0 0.0 0.0 0.0 0.0 0.0 0.0 0.0 0.0 0.0 0.0 0.0 0.0 0.0 0.0 0.0 0.0 0.0 0.0 0.0 0.0 0.0 0.0 0.0 0.0 0.0 0.0 0.0 0.0 0.0 0.0 0.0 0.0 0.0 0.0 0.0 0.0 0.0 0.0 0.0 0.0 0.0 0.0 0.0 0.0 0.0 0.0 0.0 0.0 0.0 0.0 0.0 0.0 0.0 0.0 0.0 0.0 0.0 0.0 0.0 0.0 0.0 0.0 0.0 0.0 0.0 0.0 -0.0 0.0 0.0 0.0 0.0 0.0 0.0 0.0 0.0 0.0 0.0 0.0 0.0 0.0 0.0 0.0 0.0 0.0 -0.0 0.0 0.0 0.0 0.0 0.0 0.0 0.0 0.0 0.0 0.0 0.0 -0.0 0.0 0.0 0.0 0.0 0.0 -0.0 0.0 0.0 0.0 0.0 0.0 0.0 0.0 0.0 0.0 0.0 0.0 0.0 0.0 0.0 0.0 0.0 0.0 0.0 0.0 0.0 0.0 0.0 0.0 0.0 0.0 0.0 0.0 0.0 0.0 0.0 0.0 0.0 0.0 0.0 0.0 0.0 0.0 0.0 0.0 0.0 0.0 0.0 0.0 0.0 0.0 0.0 0.0 0.0 0.0 0.0 0.0 0.0 0.0 0.0 0.0 0.0 0.0 0.0 0.0 0.0 0.0 0.0 0.0 0.0 0.0 0.0 0.0 0.0 0.0 0.0 0.0 0.0 0.0 0.0 0.0 0.0 0.0 0.0 0.0 0.0 0.0 0.0 0.0 0.0 0.0 0.0 0.0 0.0 0.0 0.0 0.0 0.0 0.0 0.0 0.0 0.0 0.0 0.0 0.0 0.0 0.0 0.0 0.0 0.0 0.0 0.0 0.0 0.0 0.0 0.0 -0.0 0.0 0.0 0.0 0.0 0.0 0.0 0.0 0.0 0.0 0.0 0.0 0.0 0.0 0.0 -0.0 0.0 0.0 0.0 0.0 0.0 0.0 0.0 0.0 -0.0 0.0 0.0 -0.0 0.0 0.0 0.0 0.0 0.0 0.0 0.0 0.0 0.0 0.0 0.0 0.0 0.0 0.0 0.0 0.0 0.0 0.0 0.0 0.0 0.0 0.0 0.0 0.0 0.0 0.0 0.0 0.0 0.0 0.0 0.0 0.0 0.0 0.0 0.0 0.0 0.0 0.0 0.0 0.0 0.0 0.0 0.0 0.0 0.0 0.0 0.0 0.0 0.0 0.0 0.0 0.0 0.0 0.0 0.0 0.0 0.0 0.0 0.0 0.0 0.0 0.0 0.0 0.0 0.0 0.0 0.0 0.0 0.0 0.0 0.0 0.0 0.0 0.0 0.0 0.0 0.0 0.0 0.0 0.0 0.0 0.0 0.0 0.0 0.0 0.0 0.0 0.0 0.0 0.0 0.0 0.0 0.0 0.0 0.0 0.0 0.0 0.0 0.0 0.0 0.0 0.0 0.0 0.0 0.0 0.0 0.0 0.0 0.0 0.0 0.0 0.0 0.0 0.0 0.0 0.0 0.0 0.0 0.0 -0.0 0.0 0.0 0.0 0.0 0.0 0.0 0.0 0.0 0.0 0.0 0.0 -0.0 0.0 0.0 0.0 0.0 0.0 -0.0 0.0 0.0 0.0 0.0 0.0 0.0 0.0 0.0 0.0 0.0 0.0 0.0 0.0 0.0 0.0 0.0 0.0 0.0 0.0 0.0 0.0 0.0 0.0 0.0 0.0 0.0 0.0 0.0 0.0 0.0 0.0 0.0 0.0 0.0 0.0 0.0 0.0 0.0 0.0 0.0 0.0 0.0 0.0 0.0 0.0 0.0 0.0 0.0 0.0 0.0 0.0 0.0 0.0 0.0 0.0 0.0 0.0 0.0 0.0 0.0 0.0 0.0 0.0 0.0 0.0 0.0 0.0 0.0 0.0 0.0 0.0 0.0 0.0 0.0 0.0 0.0 0.0 0.0 0.0 0.0 0.0 0.0 0.0 0.0 0.0 0.0 0.0 0.0 0.0 0.0 0.0 0.0 0.0 0.0 0.0 0.0 0.0 0.0 0.0 0.0 0.0 0.0 0.0 0.0 0.0 0.0 0.0 0.0 0.0 0.0 0.0 0.0 0.0 0.0 0.0 0.0 0.0 0.0 0.0 0.0 0.0 0.0 0.0 0.0 0.0 0.0 0.0 0.0 -0.0 0.0 0.0 0.0 0.0 0.0 0.0 0.0 0.0 -0.0 0.0 0.0 -0.0 0.0 0.0 0.0 0.0 0.0 0.0 0.0 0.0 0.0 0.0 0.0 0.0 0.0 0.0 0.0 0.0 0.0 0.0 0.0 0.0 0.0 0.0 0.0 0.0 0.0 0.0 0.0 0.0 0.0 0.0 0.0 0.0 0.0 0.0 0.0 0.0 0.0 0.0 0.0 0.0 0.0 0.0 0.0 0.0 0.0 0.0 0.0 0.0 0.0 0.0 0.0 0.0 0.0 0.0 0.0 0.0 0.0 0.0 0.0 0.0 0.0 0.0 0.0 0.0 0.0 0.0 0.0 0.0 0.0 0.0 0.0 0.0 0.0 0.0 0.0 0.0 0.0 0.0 0.0 0.0 0.0 0.0 0.0 0.0 0.0 0.0 0.0 0.0 0.0 0.0 0.0 0.0 0.0 0.0 0.0 0.0 0.0 0.0 0.0 0.0 0.0 0.0 0.0 0.0 0.0 0.0 0.0 0.0 0.0 0.0 0.0 0.0 0.0 0.0 0.0 0.0 0.0 0.0 0.0 0.0 0.0 0.0 0.0 0.0 0.0 0.0 0.0 0.0 0.0 0.0 0.0 0.0 0.0 0.0 -0.0 0.0 0.0 0.0 0.0 0.0 -0.0 0.0 0.0 0.0 0.0 0.0 0.0 0.0 0.0 0.0 0.0 0.0 0.0 0.0 0.0 0.0 0.0 0.0 0.0 0.0 0.0 0.0 0.0 0.0 0.0 0.0 0.0 0.0 0.0 0.0 0.0 0.0 0.0 0.0 0.0 0.0 0.0 0.0 0.0 0.0 0.0 0.0 0.0 0.0 0.0 0.0 0.0 0.0 0.0 0.0 0.0 0.0 0.0 0.0 0.0 0.0 0.0 0.0 0.0 0.0 0.0 0.0 0.0 0.0 0.0 0.0 0.0 0.0 0.0 0.0 0.0 0.0 0.0 0.0 0.0 0.0 0.0 0.0 0.0 0.0 0.0 0.0 0.0 0.0 0.0 0.0 0.0 0.0 0.0 0.0 0.0 0.0 0.0 0.0 0.0 0.0 0.0 0.0 0.0 0.0 0.0 0.0 0.0 0.0 0.0 0.0 0.0 0.0 0.0 0.0 0.0 0.0 0.0 0.0 0.0 0.0 0.0 0.0 0.0 0.0 0.0 0.0 0.0 0.0 0.0 0.0 0.0 0.0 0.0 0.0 0.0 0.0 0.0 0.0 0.0 0.0 0.0 0.0 0.0 0.0 0.0 -0.0 0.0 0.0 -0.0 0.0 0.0 0.0 0.0 0.0 0.0 0.0 0.0 0.0 0.0 0.0 0.0 0.0 0.0 0.0 0.0 0.0 0.0 0.0 0.0 0.0 0.0 0.0 0.0 0.0 0.0 0.0 0.0 0.0 0.0 0.0 0.0 0.0 0.0 0.0 0.0 0.0 0.0 0.0 0.0 0.0 0.0 0.0 0.0 0.0 0.0 0.0 0.0 0.0 0.0 0.0 0.0 0.0 0.0 0.0 0.0 0.0 0.0 0.0 0.0 0.0 0.0 0.0 0.0 0.0 0.0 0.0 0.0 0.0 0.0 0.0 0.0 0.0 0.0 0.0 0.0 0.0 0.0 0.0 0.0 0.0 0.0 0.0 0.0 0.0 0.0 0.0 0.0 0.0 0.0 0.0 0.0 0.0 0.0 0.0 0.0 0.0 0.0 0.0 0.0 0.0 0.0 0.0 0.0 0.0 0.0 0.0 0.0 0.0 0.0 0.0 0.0 0.0 0.0 0.0 0.0 0.0 0.0 0.0 0.0 0.0 0.0 0.0 0.0 0.0 0.0 0.0 0.0 0.0 0.0 0.0 0.0 0.0 0.0 0.0 0.0 0.0 0.0 0.0 0.0 0.0 0.0 0.0 -0.0 0.0 0.0 0.0 0.0 0.0 0.0 0.0 0.0 0.0 0.0 0.0 0.0 0.0 0.0 0.0 0.0 0.0 0.0 0.0 0.0 0.0 0.0 0.0 0.0 0.0 0.0 0.0 0.0 0.0 0.0 0.0 0.0 0.0 0.0 0.0 0.0 0.0 0.0 0.0 0.0 0.0 0.0 0.0 0.0 0.0 0.0 0.0 0.0 0.0 0.0 0.0 0.0 0.0 0.0 0.0 0.0 0.0 0.0 0.0 0.0 0.0 0.0 0.0 0.0 0.0 0.0 0.0 0.0 0.0 0.0 0.0 0.0 0.0 0.0 0.0 0.0 0.0 0.0 0.0 0.0 0.0 0.0 0.0 0.0 0.0 0.0 0.0 0.0 0.0 0.0 0.0 0.0 0.0 0.0 0.0 0.0 0.0 0.0 0.0 0.0 0.0 0.0 0.0 0.0 0.0 0.0 0.0 0.0 0.0 0.0 0.0 0.0 0.0 0.0 0.0 0.0 0.0 0.0 0.0 0.0 0.0 0.0 0.0 0.0 0.0 0.0 0.0 0.0 0.0 0.0 0.0 0.0 0.0 0.0 0.0 0.0 0.0 0.0 0.0 0.0 0.0 0.0 0.0 0.0 0.0 0.0 -0.0 0.0 0.0 0.0 0.0 0.0 0.0 0.0 0.0 0.0 0.0 0.0 0.0 0.0 0.0 0.0 0.0 0.0 0.0 0.0 0.0 0.0 0.0 0.0 0.0 0.0 0.0 0.0 0.0 0.0 0.0 0.0 0.0 0.0 0.0 0.0 0.0 0.0 0.0 0.0 0.0 0.0 0.0 0.0 0.0 0.0 0.0 0.0 0.0 0.0 0.0 0.0 0.0 0.0 0.0 0.0 0.0 0.0 0.0 0.0 0.0 0.0 0.0 0.0 0.0 0.0 0.0 0.0 0.0 0.0 0.0 0.0 0.0 0.0 0.0 0.0 0.0 0.0 0.0 0.0 0.0 0.0 0.0 0.0 0.0 0.0 0.0 0.0 0.0 0.0 0.0 0.0 0.0 0.0 0.0 0.0 0.0 0.0 0.0 0.0 0.0 0.0 0.0 0.0 0.0 0.0 0.0 0.0 0.0 0.0 0.0 0.0 0.0 0.0 0.0 0.0 0.0 0.0 0.0 0.0 0.0 0.0 0.0 0.0 0.0 0.0 0.0 0.0 0.0 0.0 0.0 0.0 0.0 0.0 0.0 0.0 0.0 0.0 0.0 0.0 0.0 0.0 0.0 0.0 0.0 0.0 0.0 0.0 0.0 0.0 0.0 0.0 0.0 0.0 0.0 0.0 0.0 0.0 0.0 0.0 0.0 0.0 0.0 0.0 0.0 0.0 0.0 0.0 0.0 0.0 0.0 0.0 0.0 0.0 0.0 0.0 0.0 0.0 0.0 0.0 0.0 0.0 0.0 0.0 0.0 0.0 0.0 0.0 0.0 0.0 0.0 0.0 0.0 0.0 0.0 0.0 0.0 0.0 0.0 0.0 0.0 0.0 0.0 0.0 0.0 0.0 0.0 0.0 0.0 0.0 0.0 0.0 0.0 0.0 0.0 0.0 0.0 0.0 0.0 0.0 0.0 0.0 0.0 0.0 0.0 0.0 0.0 0.0 0.0 0.0 0.0 0.0 0.0 0.0 0.0 0.0 0.0 0.0 0.0 0.0 0.0 0.0 0.0 0.0 0.0 0.0 0.0 0.0 0.0 0.0 0.0 0.0 0.0 0.0 0.0 0.0 0.0 0.0 0.0 0.0 0.0 0.0 0.0 0.0 0.0 0.0 0.0 0.0 0.0 0.0 0.0 0.0 0.0 0.0 0.0 0.0 0.0 0.0 0.0 0.0 0.0 0.0 0.0 0.0 0.0 0.0 0.0 0.0 0.0 0.0 0.0 0.0 0.0 0.0 0.0 0.0 0.0 